<?xml version="1.0" encoding="iso-8859-1"?>
<!-- Generator: Adobe Illustrator 25.0.0, SVG Export Plug-In . SVG Version: 6.00 Build 0)  -->
<svg fill="#FFFFFF" version="1.1" baseProfile="basic" id="Layer_1"
	 xmlns="http://www.w3.org/2000/svg" xmlns:xlink="http://www.w3.org/1999/xlink" x="0px" y="0px" viewBox="0 0 72 72"
	 xml:space="preserve">
<path d="M41.011,44.137c0.262-0.257,0.692-0.251,0.948,0.012c0.257,0.263,0.25,0.692-0.012,0.949v-0.095
	c-1.706,1.283-3.794,1.939-5.93,1.849c-2.135,0.09-4.224-0.567-5.93-1.849c-0.227-0.274-0.185-0.686,0.09-0.913
	c0.239-0.197,0.579-0.197,0.823,0c1.444,1.056,3.204,1.593,4.993,1.509C37.784,45.694,39.55,45.181,41.011,44.137z"/>
<path d="M36,12c13.255,0,24,10.745,24,24S49.255,60,36,60S12,49.255,12,36S22.745,12,36,12z M50.067,39.192
	c1.205-0.603,1.963-1.843,1.939-3.192c-0.072-1.933-1.694-3.442-3.633-3.377c-0.859,0.03-1.676,0.382-2.297,0.972
	c-2.732-1.861-5.942-2.881-9.241-2.953l1.557-7.487l5.136,1.08c0.143,1.318,1.324,2.273,2.643,2.13
	c1.319-0.143,2.273-1.324,2.13-2.643s-1.324-2.273-2.643-2.13c-0.758,0.078-1.438,0.519-1.813,1.175l-5.882-1.175
	c-0.4-0.089-0.799,0.161-0.889,0.567c0,0.006,0,0.006,0,0.012L35.302,30.5c-3.341,0.054-6.592,1.08-9.36,2.953
	c-1.408-1.324-3.627-1.259-4.952,0.155c-1.324,1.408-1.259,3.627,0.155,4.952c0.274,0.257,0.591,0.477,0.942,0.632
	c-0.024,0.352-0.024,0.704,0,1.056c0,5.375,6.264,9.748,13.99,9.748s13.99-4.367,13.99-9.748
	C50.091,39.896,50.091,39.544,50.067,39.192z"/>
<path d="M30.407,36c1.326,0,2.401,1.075,2.401,2.401c0,1.326-1.075,2.401-2.401,2.401c-1.326,0-2.401-1.075-2.401-2.401
	C28.006,37.075,29.081,36,30.407,36z"/>
<path d="M41.524,36c1.326,0,2.401,1.075,2.401,2.401c0,1.326-1.075,2.401-2.401,2.401c-1.326,0-2.401-1.075-2.401-2.401
	C39.123,37.075,40.198,36,41.524,36z"/>
</svg>