<svg width="24" height="24" viewBox="0 0 24 24" fill="none" xmlns="http://www.w3.org/2000/svg">
<path d="M8.70051 8.78581C8.95767 8.52325 9.03268 8.51253 10.6506 8.51253C12.1079 8.51253 12.1561 8.51789 12.3704 8.62506C12.6811 8.78045 12.815 9.00015 12.815 9.35381C12.815 9.66997 12.6865 9.88966 12.4079 10.0719C12.2579 10.1683 12.1668 10.1737 10.7417 10.1844C9.86308 10.1897 9.16126 10.1737 9.05411 10.1415C8.50229 9.98612 8.2987 9.19306 8.70051 8.78581V8.78581ZM11.99 13.8496C9.10232 13.8496 9.00053 13.8603 8.7648 14.0693C8.57729 14.2354 8.45943 14.573 8.49157 14.8141C8.52908 15.066 8.74873 15.3553 8.98446 15.4571C9.10232 15.5107 9.73986 15.5482 12.0007 15.5214L14.5669 15.4893L15.0598 15.4089C15.542 15.1356 15.6224 14.4765 15.2259 14.1014C14.942 13.8496 14.958 13.8496 11.99 13.8496V13.8496ZM23.9586 20.821C23.771 22.3428 22.7263 23.5217 21.2209 23.9021C20.8352 23.9986 20.7012 24.0039 11.9578 23.9986C3.50378 23.9986 3.06982 23.9932 2.74302 23.9021C2.29299 23.7842 1.90726 23.6074 1.54831 23.3663C1.24829 23.1627 0.803619 22.734 0.637538 22.4875C0.433954 22.1874 0.198226 21.6676 0.101792 21.3086C0.00535746 20.9496 0 20.8049 0 12.017C0 3.27728 0 3.08973 0.0964343 2.70928C0.433954 1.38573 1.48402 0.372977 2.83945 0.0729017C3.23055 -0.0128343 20.6316 -0.0289099 21.0548 0.056826C22.1906 0.287241 23.0853 0.973129 23.605 2.00732C24.0175 2.82717 23.98 1.92694 23.9961 11.6848C24.0068 17.8899 23.9961 20.4995 23.9586 20.821ZM19.3833 10.8971C19.3244 10.6291 19.1583 10.3826 18.9708 10.2808C18.9118 10.2487 18.5422 10.2112 18.1404 10.1897C17.476 10.1576 17.401 10.1469 17.1867 10.0236C16.8546 9.83072 16.7635 9.61638 16.7581 9.04302C16.7581 7.94989 16.3027 6.93177 15.4027 6.01547C14.7598 5.36174 14.0473 4.91698 13.2276 4.67049C13.0347 4.61155 12.5954 4.59011 11.1274 4.57404C8.82909 4.54724 8.31478 4.59547 7.53259 4.90626C6.08607 5.47962 5.05208 6.696 4.6717 8.24996C4.60206 8.53932 4.58599 9.01087 4.56991 11.6955C4.54848 15.0606 4.56991 15.5589 4.78421 16.2234C5.30389 17.8685 6.77183 19.0848 8.24513 19.3528C8.73802 19.4439 14.7919 19.4653 15.4081 19.3796C16.4849 19.2349 17.3314 18.8008 18.1243 17.9917C18.6975 17.4076 19.0565 16.77 19.2922 15.9287C19.4637 15.3446 19.4476 11.1918 19.3833 10.8971V10.8971Z" fill="white"/>
</svg>
