<svg width="24" height="27" viewBox="0 0 24 27" fill="none" xmlns="http://www.w3.org/2000/svg">
<path d="M9.369 11.3265C8.5995 11.3265 7.992 12.0015 7.992 12.825C7.992 13.6485 8.613 14.3235 9.369 14.3235C10.1385 14.3235 10.746 13.6485 10.746 12.825C10.7595 12.0015 10.1385 11.3265 9.369 11.3265ZM14.2965 11.3265C13.527 11.3265 12.9195 12.0015 12.9195 12.825C12.9195 13.6485 13.5405 14.3235 14.2965 14.3235C15.066 14.3235 15.6735 13.6485 15.6735 12.825C15.6735 12.0015 15.066 11.3265 14.2965 11.3265Z" fill="white"/>
<path d="M20.8575 0H2.7675C1.242 0 0 1.242 0 2.781V21.033C0 22.572 1.242 23.814 2.7675 23.814H18.0765L17.361 21.3165L19.089 22.923L20.7225 24.435L23.625 27V2.781C23.625 1.242 22.383 0 20.8575 0ZM15.6465 17.631C15.6465 17.631 15.1605 17.0505 14.7555 16.5375C16.524 16.038 17.199 14.931 17.199 14.931C16.6455 15.2955 16.119 15.552 15.6465 15.7275C14.9715 16.011 14.3235 16.2 13.689 16.308C12.393 16.551 11.205 16.4835 10.1925 16.2945C9.423 16.146 8.7615 15.93 8.208 15.714C7.8975 15.5925 7.56 15.444 7.2225 15.255C7.182 15.228 7.1415 15.2145 7.101 15.1875C7.074 15.174 7.0605 15.1605 7.047 15.147C6.804 15.012 6.669 14.9175 6.669 14.9175C6.669 14.9175 7.317 15.9975 9.0315 16.5105C8.6265 17.0235 8.127 17.631 8.127 17.631C5.1435 17.5365 4.0095 15.579 4.0095 15.579C4.0095 11.232 5.9535 7.7085 5.9535 7.7085C7.8975 6.2505 9.747 6.291 9.747 6.291L9.882 6.453C7.452 7.155 6.3315 8.2215 6.3315 8.2215C6.3315 8.2215 6.6285 8.0595 7.128 7.83C8.5725 7.1955 9.72 7.02 10.1925 6.9795C10.2735 6.966 10.341 6.9525 10.422 6.9525C11.2455 6.8445 12.177 6.8175 13.149 6.9255C14.4315 7.074 15.8085 7.452 17.2125 8.2215C17.2125 8.2215 16.146 7.209 13.851 6.507L14.04 6.291C14.04 6.291 15.8895 6.2505 17.8335 7.7085C17.8335 7.7085 19.7775 11.232 19.7775 15.579C19.7775 15.579 18.63 17.5365 15.6465 17.631Z" fill="white"/>
</svg>
