<svg width="24" height="24" viewBox="0 0 24 24" fill="none" xmlns="http://www.w3.org/2000/svg">
<path d="M17.5 1H6.5C3.46243 1 1 3.46243 1 6.5V17.5C1 20.5376 3.46243 23 6.5 23H17.5C20.5376 23 23 20.5376 23 17.5V6.5C23 3.46243 20.5376 1 17.5 1Z" stroke="white" stroke-width="2" stroke-linecap="round" stroke-linejoin="round"/>
<path d="M16.4005 11.3071C16.5362 12.2226 16.3799 13.1575 15.9536 13.979C15.5274 14.8005 14.8529 15.4666 14.0263 15.8827C13.1996 16.2988 12.2628 16.4436 11.349 16.2966C10.4353 16.1496 9.59122 15.7182 8.93681 15.0638C8.28239 14.4093 7.85099 13.5652 7.70396 12.6515C7.55693 11.7378 7.70176 10.801 8.11784 9.9743C8.53393 9.14763 9.20009 8.4732 10.0216 8.04695C10.843 7.6207 11.778 7.46433 12.6935 7.60009C13.6273 7.73856 14.4918 8.1737 15.1593 8.84122C15.8269 9.50875 16.262 10.3733 16.4005 11.3071Z" stroke="white" stroke-width="2" stroke-linecap="round" stroke-linejoin="round"/>
<path d="M18.0499 5.94971H18.0624" stroke="white" stroke-width="2" stroke-linecap="round" stroke-linejoin="round"/>
</svg>
