<svg width="24" height="24" viewBox="0 0 24 24" fill="none" xmlns="http://www.w3.org/2000/svg">
<path fill-rule="evenodd" clip-rule="evenodd" d="M0.492543 15.5C1.9904 20.4204 6.56424 24 11.9743 24C18.6015 24 23.9743 18.6273 23.9743 12C23.9743 5.3726 18.6015 0 11.9743 0C5.61476 0 0.410987 4.94719 0 11.2027C0.00167489 11.2056 0.00334759 11.2084 0.00501807 11.2112C0.00506685 11.2103 0.00509236 11.2099 0.00509236 11.2099L6.45306 13.8643C6.63026 13.7474 6.81845 13.6481 7.01495 13.5677C7.46755 13.3813 7.94487 13.2978 8.42054 13.3195L11.357 9.05384C11.356 9.03489 11.356 9.0147 11.356 8.99451C11.356 6.47709 13.4006 4.42915 15.9139 4.42915C18.4282 4.42915 20.4718 6.47709 20.4718 8.99451C20.4718 11.5117 18.4282 13.5615 15.9139 13.5615C15.8799 13.5615 15.8449 13.5605 15.8109 13.5595L11.6094 16.562C11.6217 17.0256 11.5362 17.4901 11.3529 17.933C10.6483 19.6274 8.69546 20.434 7.00176 19.7263C5.96657 19.2947 5.2649 18.3976 5.03603 17.3747L0.492543 15.5ZM7.29388 19.0238C8.60163 19.5687 10.1061 18.9476 10.6514 17.6384C10.9151 17.006 10.9161 16.3055 10.6555 15.671C10.3949 15.0365 9.90319 14.5401 9.2694 14.2764C8.64077 14.0147 7.96794 14.023 7.37618 14.2475L8.90992 14.8831C9.87383 15.2848 10.33 16.3931 9.92791 17.3583C9.52702 18.3224 8.42054 18.7797 7.45611 18.378L5.97234 17.7631C6.2351 18.3121 6.69059 18.7725 7.29388 19.0238ZM12.8773 8.99451C12.8773 10.6722 14.2401 12.0371 15.9139 12.0371C17.5888 12.0371 18.9515 10.6722 18.9515 8.99451C18.9515 7.31812 17.5888 5.9529 15.9139 5.9529C14.2401 5.9529 12.8773 7.31812 12.8773 8.99451ZM15.919 6.70411C14.6603 6.70411 13.6385 7.72776 13.6385 8.98988C13.6385 10.2521 14.6603 11.2748 15.919 11.2748C17.1788 11.2748 18.2006 10.2521 18.2006 8.98988C18.2006 7.72776 17.1788 6.70411 15.919 6.70411Z" fill="white"/>
</svg>
