<svg width="27" height="20" viewBox="0 0 27 20" fill="none" xmlns="http://www.w3.org/2000/svg">
<path d="M10.7386 14.2209V5.77925L17.7955 10.0002L10.7386 14.2209ZM26.4358 3.12303C26.1252 1.89375 25.2103 0.925647 24.0487 0.597098C21.9431 0 13.4999 0 13.4999 0C13.4999 0 5.05685 0 2.95132 0.597098C1.78971 0.925647 0.874776 1.89375 0.564238 3.12303C0 5.35114 0 10.0001 0 10.0001C0 10.0001 0 14.6487 0.564238 16.877C0.874776 18.1064 1.78959 19.0744 2.95132 19.4031C5.05685 20 13.4999 20 13.4999 20C13.4999 20 21.9431 20 24.0487 19.4031C25.2103 19.0744 26.1252 18.1064 26.4358 16.877C27 14.6487 27 9.99994 27 9.99994C27 9.99994 27 5.35114 26.4358 3.12303" fill="white"/>
</svg>
